<mxfile host="app.diagrams.net" modified="2024-07-19T02:45:20.898Z" agent="Mozilla/5.0 (Windows NT 10.0; Win64; x64) AppleWebKit/537.36 (KHTML, like Gecko) Chrome/126.0.0.0 Safari/537.36 Edg/126.0.0.0" etag="RRUl2x5CB7GeptF86fBp" version="24.7.1" type="github">
  <diagram name="第 1 页" id="6jmwY03XSO3npQRhQJKJ">
    <mxGraphModel dx="675" dy="382" grid="1" gridSize="10" guides="1" tooltips="1" connect="1" arrows="1" fold="1" page="1" pageScale="1" pageWidth="827" pageHeight="1169" math="0" shadow="0">
      <root>
        <mxCell id="0" />
        <mxCell id="1" parent="0" />
        <mxCell id="KXybxk2uo-UW7nifIXF--1" value="" style="rounded=0;whiteSpace=wrap;html=1;fontFamily=Times New Roman;fillColor=#E8E8E8;" parent="1" vertex="1">
          <mxGeometry x="280" y="128.5" width="330" height="75" as="geometry" />
        </mxCell>
        <mxCell id="NZZuno2mVVYI2pTD-jRh-1" value="" style="rounded=0;whiteSpace=wrap;html=1;" vertex="1" parent="1">
          <mxGeometry x="486" y="134.25" width="120" height="60" as="geometry" />
        </mxCell>
        <mxCell id="5TXTgct5jN2t5OzSRrQ--1" value="1" style="whiteSpace=wrap;fillColor=#dae8fc;fontSize=12;fillStyle=auto;strokeWidth=1;strokeColor=#6c8ebf;fontFamily=Times New Roman;fontStyle=1" parent="1" vertex="1">
          <mxGeometry x="288" y="140" width="50" height="10" as="geometry" />
        </mxCell>
        <mxCell id="5TXTgct5jN2t5OzSRrQ--2" value="2" style="whiteSpace=wrap;fontSize=12;fontFamily=Times New Roman;fontStyle=1" parent="1" vertex="1">
          <mxGeometry x="348" y="140" width="40" height="10" as="geometry" />
        </mxCell>
        <mxCell id="5TXTgct5jN2t5OzSRrQ--51" value="" style="edgeStyle=orthogonalEdgeStyle;rounded=0;orthogonalLoop=1;jettySize=auto;exitX=0;exitY=1;exitDx=0;exitDy=0;entryX=0;entryY=0;entryDx=0;entryDy=0;dashed=1;endArrow=none;endFill=0;fontFamily=Times New Roman;dashPattern=1 1;fontSize=12;fontStyle=1" parent="1" source="5TXTgct5jN2t5OzSRrQ--3" target="5TXTgct5jN2t5OzSRrQ--44" edge="1">
          <mxGeometry relative="1" as="geometry" />
        </mxCell>
        <mxCell id="5TXTgct5jN2t5OzSRrQ--3" value="4" style="whiteSpace=wrap;fillColor=#dae8fc;fontSize=12;fontFamily=Times New Roman;fontStyle=1;strokeColor=#6c8ebf;" parent="1" vertex="1">
          <mxGeometry x="418" y="140" width="50" height="10" as="geometry" />
        </mxCell>
        <mxCell id="5TXTgct5jN2t5OzSRrQ--5" value="2" style="whiteSpace=wrap;fillColor=#fff2cc;fontSize=12;fontFamily=Times New Roman;fontStyle=1;strokeColor=#d6b656;" parent="1" vertex="1">
          <mxGeometry x="288" y="161" width="30" height="10" as="geometry" />
        </mxCell>
        <mxCell id="5TXTgct5jN2t5OzSRrQ--50" value="" style="edgeStyle=orthogonalEdgeStyle;rounded=0;orthogonalLoop=1;jettySize=auto;exitX=1;exitY=0;exitDx=0;exitDy=0;entryX=0;entryY=1;entryDx=0;entryDy=0;endArrow=none;endFill=0;dashed=1;fontFamily=Times New Roman;dashPattern=1 1;fontSize=12;fontStyle=1" parent="1" source="5TXTgct5jN2t5OzSRrQ--8" target="5TXTgct5jN2t5OzSRrQ--2" edge="1">
          <mxGeometry relative="1" as="geometry" />
        </mxCell>
        <mxCell id="5TXTgct5jN2t5OzSRrQ--8" value="1" style="whiteSpace=wrap;fillColor=#f8cecc;fontSize=12;fontFamily=Times New Roman;fontStyle=1;strokeColor=#b85450;" parent="1" vertex="1">
          <mxGeometry x="318" y="161" width="30" height="10" as="geometry" />
        </mxCell>
        <mxCell id="5TXTgct5jN2t5OzSRrQ--20" value="" style="whiteSpace=wrap;html=1;aspect=fixed;fontFamily=Times New Roman;" parent="1" vertex="1">
          <mxGeometry x="490" y="139.25" width="10" height="10" as="geometry" />
        </mxCell>
        <mxCell id="5TXTgct5jN2t5OzSRrQ--21" value="" style="whiteSpace=wrap;html=1;aspect=fixed;fillColor=#f8cecc;fontFamily=Times New Roman;strokeColor=#b85450;" parent="1" vertex="1">
          <mxGeometry x="550" y="159.25" width="10" height="10" as="geometry" />
        </mxCell>
        <mxCell id="5TXTgct5jN2t5OzSRrQ--22" value="" style="whiteSpace=wrap;html=1;aspect=fixed;fillColor=#fff2cc;fontFamily=Times New Roman;strokeColor=#d6b656;" parent="1" vertex="1">
          <mxGeometry x="490" y="159.25" width="10" height="10" as="geometry" />
        </mxCell>
        <mxCell id="5TXTgct5jN2t5OzSRrQ--23" value="" style="whiteSpace=wrap;html=1;aspect=fixed;fillColor=#e1d5e7;fontFamily=Times New Roman;strokeColor=#9673a6;" parent="1" vertex="1">
          <mxGeometry x="490" y="179.25" width="10" height="10" as="geometry" />
        </mxCell>
        <mxCell id="5TXTgct5jN2t5OzSRrQ--24" value="&lt;font style=&quot;font-size: 10px;&quot;&gt;Compute&lt;/font&gt;" style="text;html=1;align=center;verticalAlign=middle;whiteSpace=wrap;rounded=0;fontFamily=Times New Roman;" parent="1" vertex="1">
          <mxGeometry x="500" y="139.25" width="50" height="10" as="geometry" />
        </mxCell>
        <mxCell id="5TXTgct5jN2t5OzSRrQ--25" value="&lt;font style=&quot;font-size: 10px;&quot;&gt;Swap&lt;/font&gt;" style="text;html=1;align=center;verticalAlign=middle;whiteSpace=wrap;rounded=0;fontFamily=Times New Roman;" parent="1" vertex="1">
          <mxGeometry x="500" y="159.25" width="50" height="10" as="geometry" />
        </mxCell>
        <mxCell id="5TXTgct5jN2t5OzSRrQ--26" value="&lt;span style=&quot;font-size: 10px;&quot;&gt;Snapshot&lt;/span&gt;" style="text;html=1;align=center;verticalAlign=middle;whiteSpace=wrap;rounded=0;fontFamily=Times New Roman;" parent="1" vertex="1">
          <mxGeometry x="560" y="159.25" width="50" height="10" as="geometry" />
        </mxCell>
        <mxCell id="5TXTgct5jN2t5OzSRrQ--27" value="&lt;font style=&quot;font-size: 10px;&quot;&gt;Persist&lt;/font&gt;" style="text;html=1;align=center;verticalAlign=middle;whiteSpace=wrap;rounded=0;fontFamily=Times New Roman;" parent="1" vertex="1">
          <mxGeometry x="500" y="179.25" width="50" height="10" as="geometry" />
        </mxCell>
        <mxCell id="5TXTgct5jN2t5OzSRrQ--28" value="3" style="whiteSpace=wrap;fillColor=#fff2cc;fontSize=12;fontFamily=Times New Roman;fontStyle=1;strokeColor=#d6b656;" parent="1" vertex="1">
          <mxGeometry x="348" y="161" width="30" height="10" as="geometry" />
        </mxCell>
        <mxCell id="5TXTgct5jN2t5OzSRrQ--48" value="" style="edgeStyle=orthogonalEdgeStyle;rounded=0;orthogonalLoop=1;jettySize=auto;exitX=0;exitY=0;exitDx=0;exitDy=0;entryX=0;entryY=1;entryDx=0;entryDy=0;endArrow=none;endFill=0;dashed=1;fontFamily=Times New Roman;dashPattern=1 1;fontSize=12;fontStyle=1" parent="1" source="5TXTgct5jN2t5OzSRrQ--29" target="5TXTgct5jN2t5OzSRrQ--28" edge="1">
          <mxGeometry relative="1" as="geometry" />
        </mxCell>
        <mxCell id="5TXTgct5jN2t5OzSRrQ--29" value="1" style="whiteSpace=wrap;fillColor=#e1d5e7;fontSize=12;fontFamily=Times New Roman;fontStyle=1;strokeColor=#9673a6;" parent="1" vertex="1">
          <mxGeometry x="348" y="182" width="40" height="10" as="geometry" />
        </mxCell>
        <mxCell id="5TXTgct5jN2t5OzSRrQ--30" value="3" style="whiteSpace=wrap;fontSize=12;fontFamily=Times New Roman;fontStyle=1" parent="1" vertex="1">
          <mxGeometry x="388" y="140" width="20" height="10" as="geometry" />
        </mxCell>
        <mxCell id="5TXTgct5jN2t5OzSRrQ--31" value="2" style="whiteSpace=wrap;fillColor=#f8cecc;fontSize=12;fontFamily=Times New Roman;fontStyle=1;strokeColor=#b85450;" parent="1" vertex="1">
          <mxGeometry x="378" y="161" width="40" height="10" as="geometry" />
        </mxCell>
        <mxCell id="5TXTgct5jN2t5OzSRrQ--33" value="" style="whiteSpace=wrap;html=1;aspect=fixed;fillColor=#dae8fc;strokeColor=#6c8ebf;fontFamily=Times New Roman;" parent="1" vertex="1">
          <mxGeometry x="550" y="139.25" width="10" height="10" as="geometry" />
        </mxCell>
        <mxCell id="5TXTgct5jN2t5OzSRrQ--34" value="&lt;font style=&quot;font-size: 10px;&quot;&gt;DHA&lt;/font&gt;" style="text;html=1;align=center;verticalAlign=middle;whiteSpace=wrap;rounded=0;fontFamily=Times New Roman;" parent="1" vertex="1">
          <mxGeometry x="560" y="139.25" width="30" height="10" as="geometry" />
        </mxCell>
        <mxCell id="5TXTgct5jN2t5OzSRrQ--35" value="5" style="whiteSpace=wrap;fillColor=#fff2cc;fontSize=12;fontFamily=Times New Roman;fontStyle=1;strokeColor=#d6b656;" parent="1" vertex="1">
          <mxGeometry x="388" y="182" width="30" height="10" as="geometry" />
        </mxCell>
        <mxCell id="5TXTgct5jN2t5OzSRrQ--36" value="3" style="whiteSpace=wrap;fillColor=#fff2cc;fontSize=12;fontFamily=Times New Roman;fontStyle=1;strokeColor=#d6b656;" parent="1" vertex="1">
          <mxGeometry x="288" y="182" width="40" height="10" as="geometry" />
        </mxCell>
        <mxCell id="5TXTgct5jN2t5OzSRrQ--38" value="2" style="whiteSpace=wrap;fillColor=#e1d5e7;fontSize=12;fontFamily=Times New Roman;fontStyle=1;strokeColor=#9673a6;" parent="1" vertex="1">
          <mxGeometry x="418" y="182" width="50" height="10" as="geometry" />
        </mxCell>
        <mxCell id="5TXTgct5jN2t5OzSRrQ--47" value="" style="edgeStyle=orthogonalEdgeStyle;rounded=0;orthogonalLoop=1;jettySize=auto;exitX=0;exitY=1;exitDx=0;exitDy=0;entryX=0;entryY=0;entryDx=0;entryDy=0;endArrow=none;endFill=0;dashed=1;fontFamily=Times New Roman;dashPattern=1 1;fontSize=12;fontStyle=1" parent="1" source="5TXTgct5jN2t5OzSRrQ--44" target="5TXTgct5jN2t5OzSRrQ--38" edge="1">
          <mxGeometry relative="1" as="geometry" />
        </mxCell>
        <mxCell id="5TXTgct5jN2t5OzSRrQ--44" value="5" style="whiteSpace=wrap;fillColor=#fff2cc;fontSize=12;fontFamily=Times New Roman;fontStyle=1;strokeColor=#d6b656;" parent="1" vertex="1">
          <mxGeometry x="418" y="161" width="20" height="10" as="geometry" />
        </mxCell>
        <mxCell id="5TXTgct5jN2t5OzSRrQ--45" value="4" style="whiteSpace=wrap;fillColor=#f8cecc;fontSize=12;fontFamily=Times New Roman;fontStyle=1;strokeColor=#b85450;" parent="1" vertex="1">
          <mxGeometry x="438" y="161" width="40" height="10" as="geometry" />
        </mxCell>
      </root>
    </mxGraphModel>
  </diagram>
</mxfile>
